<?xml version="1.0" encoding="utf-8"?>
<!-- Generator: Adobe Illustrator 15.0.0, SVG Export Plug-In . SVG Version: 6.00 Build 0)  -->
<!DOCTYPE svg PUBLIC "-//W3C//DTD SVG 1.1//EN" "http://www.w3.org/Graphics/SVG/1.1/DTD/svg11.dtd">
<svg version="1.1" id="图层_1" xmlns="http://www.w3.org/2000/svg" xmlns:xlink="http://www.w3.org/1999/xlink" x="0px" y="0px"
	 width="24px" height="24px" viewBox="0 0 24 24" enable-background="new 0 0 24 24" xml:space="preserve">
<path d="M12,0C5.383,0,0,5.383,0,12c0,6.616,5.383,12,12,12c6.616,0,12-5.384,12-12C24,5.383,18.616,0,12,0z M6.19,18.462
	c-0.174,0.074-0.395,0.042-0.544-0.108c-0.143-0.143-0.186-0.357-0.109-0.543L8.91,9.617l5.472,5.472L6.19,18.462z M18.462,6.19
	l-3.373,8.192L9.617,8.911l8.191-3.374c0.188-0.077,0.401-0.033,0.545,0.109C18.496,5.79,18.539,6.004,18.462,6.19z"/>
</svg>
