<?xml version="1.0" encoding="utf-8"?>
<!-- Generator: Adobe Illustrator 15.0.0, SVG Export Plug-In . SVG Version: 6.00 Build 0)  -->
<!DOCTYPE svg PUBLIC "-//W3C//DTD SVG 1.1//EN" "http://www.w3.org/Graphics/SVG/1.1/DTD/svg11.dtd">
<svg version="1.1" id="Layer_1" xmlns="http://www.w3.org/2000/svg" xmlns:xlink="http://www.w3.org/1999/xlink" x="0px" y="0px"
	 width="64px" height="64px" viewBox="0 0 64 64" enable-background="new 0 0 64 64" xml:space="preserve">
<title>1</title>
<path d="M32,12.61c6.641,0,7.43,0,10.05,0.14c1.578,0.02,3.141,0.311,4.62,0.86c2.169,0.837,3.883,2.551,4.721,4.72
	c0.549,1.479,0.84,3.042,0.859,4.62c0.12,2.62,0.141,3.41,0.141,10.05c0,6.641,0,7.43-0.141,10.05
	c-0.02,1.578-0.311,3.141-0.859,4.62c-0.838,2.169-2.552,3.883-4.721,4.721c-1.479,0.549-3.042,0.84-4.62,0.859
	c-2.62,0.12-3.409,0.141-10.05,0.141c-6.64,0-7.43,0-10.05-0.141c-1.578-0.02-3.141-0.311-4.62-0.859
	c-2.169-0.838-3.883-2.552-4.72-4.721c-0.549-1.479-0.84-3.042-0.86-4.62c-0.12-2.62-0.14-3.409-0.14-10.05
	c0-6.64,0-7.43,0.14-10.05c0.02-1.578,0.311-3.141,0.86-4.62c0.837-2.169,2.551-3.883,4.72-4.72c1.479-0.549,3.042-0.84,4.62-0.86
	C24.57,12.63,25.36,12.61,32,12.61 M32,8.13c-6.76,0-7.6,0-10.26,0.15c-2.051,0.047-4.08,0.439-6,1.16
	c-3.338,1.292-5.978,3.932-7.27,7.27c-0.721,1.921-1.114,3.949-1.16,6C7.16,25.4,7.13,26.24,7.13,33s0,7.6,0.15,10.26
	c0.047,2.051,0.439,4.08,1.16,6c1.292,3.339,3.932,5.979,7.27,7.271c1.921,0.721,3.949,1.112,6,1.159
	c2.65,0.121,3.5,0.15,10.26,0.15s7.6,0,10.26-0.15c2.051-0.047,4.079-0.438,6-1.159c3.338-1.292,5.977-3.932,7.27-7.271
	c0.721-1.92,1.113-3.949,1.16-6c0.119-2.65,0.15-3.5,0.15-10.26s0-7.6-0.15-10.26c-0.047-2.051-0.439-4.08-1.16-6
	c-1.293-3.339-3.932-5.978-7.27-7.271c-1.921-0.721-3.949-1.113-6-1.16C39.6,8.15,38.76,8.12,32,8.12"/>
<path d="M32,20.23c-7.053,0-12.77,5.717-12.77,12.77S24.947,45.77,32,45.77S44.77,40.053,44.77,33S39.053,20.23,32,20.23L32,20.23
	 M32,41.29c-4.579,0-8.29-3.712-8.29-8.29c0-4.579,3.711-8.29,8.29-8.29c4.578,0,8.29,3.711,8.29,8.29
	C40.29,37.578,36.578,41.29,32,41.29L32,41.29"/>
<path d="M48.26,19.72c0,1.657-1.343,3-3,3c-1.656,0-3-1.343-3-3c0-1.657,1.344-3,3-3C46.917,16.72,48.26,18.063,48.26,19.72"/>
</svg>
